<svg width="32" height="32" viewBox="0 0 32 32" fill="none" xmlns="http://www.w3.org/2000/svg">
<g clip-path="url(#clip0_377_2131)">
<path d="M7.3325 6.66638H24.6658C24.8579 6.73373 25.0319 6.84413 25.1747 6.98913C25.3175 7.13414 25.4251 7.3099 25.4895 7.50294C25.5538 7.69599 25.5731 7.90121 25.5459 8.10287C25.5187 8.30453 25.4457 8.49729 25.3325 8.66638L18.6658 15.9997V25.333L13.3325 21.333V15.9997L6.66583 8.66638C6.55262 8.49729 6.47961 8.30453 6.4524 8.10287C6.42519 7.90121 6.4445 7.69599 6.50885 7.50294C6.5732 7.3099 6.68088 7.13414 6.82365 6.98913C6.96641 6.84413 7.14048 6.73373 7.3325 6.66638Z" stroke="#D5C5A7" stroke-width="2.66667" stroke-linecap="round" stroke-linejoin="round"/>
</g>
<defs>
<clipPath id="clip0_377_2131">
<rect width="32" height="32" fill="white"/>
</clipPath>
</defs>
</svg>
