<svg width="27" height="24" viewBox="0 0 27 24" fill="none" xmlns="http://www.w3.org/2000/svg">
<path d="M21.4307 4.30664L21.7969 4.84375C21.5039 6.04818 21.1296 7.33398 20.6738 8.70117C20.2181 10.0521 19.7217 11.403 19.1846 12.7539C18.6475 14.0885 18.1104 15.3499 17.5732 16.5381H14.5215C14.8633 15.3011 15.2051 13.9583 15.5469 12.5098C15.8887 11.0612 16.1979 9.62077 16.4746 8.18848C16.7513 6.75618 16.971 5.46224 17.1338 4.30664H21.4307ZM12.4463 4.30664L12.7881 4.84375C12.5114 6.04818 12.137 7.33398 11.665 8.70117C11.2093 10.0521 10.7129 11.403 10.1758 12.7539C9.63867 14.0885 9.10156 15.3499 8.56445 16.5381H5.63477C5.87891 15.6104 6.12305 14.6175 6.36719 13.5596C6.6276 12.5016 6.86361 11.4274 7.0752 10.3369C7.30306 9.24642 7.50651 8.18848 7.68555 7.16309C7.88086 6.1377 8.03548 5.18555 8.14941 4.30664H12.4463Z" fill="#D5C5A7"/>
</svg>
